<svg width="56" height="56" viewBox="0 0 56 56" fill="none" xmlns="http://www.w3.org/2000/svg">
<path fill-rule="evenodd" clip-rule="evenodd" d="M21.5 27.1667C21.5 24.037 24.037 21.5 27.1667 21.5C30.2963 21.5 32.8333 24.037 32.8333 27.1667C32.8333 28.6891 32.2329 30.0713 31.256 31.0895C31.2255 31.1136 31.1961 31.1397 31.1679 31.1679C31.1397 31.1961 31.1136 31.2255 31.0895 31.256C30.0713 32.2329 28.6891 32.8333 27.1667 32.8333C24.037 32.8333 21.5 30.2963 21.5 27.1667ZM31.8347 33.2489C30.5419 34.2426 28.9233 34.8333 27.1667 34.8333C22.9325 34.8333 19.5 31.4008 19.5 27.1667C19.5 22.9325 22.9325 19.5 27.1667 19.5C31.4008 19.5 34.8333 22.9325 34.8333 27.1667C34.8333 28.9233 34.2426 30.5419 33.2489 31.8347L36.2071 34.7929C36.5976 35.1834 36.5976 35.8166 36.2071 36.2071C35.8166 36.5976 35.1834 36.5976 34.7929 36.2071L31.8347 33.2489Z" fill="#40494D"/>
</svg>
